HIERARCHY
ROOT Hips
{
 OFFSET 0.000000 0.000000 0.000000
 CHANNELS 6 Xposition Yposition Zposition Yrotation Xrotation Zrotation
 JOINT Chest
 {
  OFFSET 0.000000 10.295748 -1.143972
  CHANNELS 3 Yrotation Xrotation Zrotation
  JOINT Chest2
  {
   OFFSET 0.000000 11.463406 0.000000
   CHANNELS 3 Yrotation Xrotation Zrotation
   JOINT Chest3
   {
    OFFSET 0.000000 10.465446 0.003843
    CHANNELS 3 Yrotation Xrotation Zrotation
    JOINT Chest4
    {
     OFFSET 0.000000 10.453763 0.003847
     CHANNELS 3 Yrotation Xrotation Zrotation
     JOINT Neck
     {
      OFFSET 0.000000 14.640069 0.000000
      CHANNELS 3 Yrotation Xrotation Zrotation
      JOINT Head
      {
       OFFSET 0.000000 9.731475 -0.008265
       CHANNELS 3 Yrotation Xrotation Zrotation
       End Site
       {
        OFFSET 0.000000 18.098145 -0.001112
       }
      }
     }
     JOINT RightCollar
     {
      OFFSET -3.176695 8.204215 0.000000
      CHANNELS 3 Yrotation Xrotation Zrotation
      JOINT RightShoulder
      {
       OFFSET -14.761309 0.000000 0.000000
       CHANNELS 3 Yrotation Xrotation Zrotation
       JOINT RightElbow
       {
        OFFSET -31.560813 0.000000 0.000000
        CHANNELS 3 Yrotation Xrotation Zrotation
        JOINT RightWrist
        {
         OFFSET -25.806933 0.000000 0.000000
         CHANNELS 3 Yrotation Xrotation Zrotation
         End Site
         {
          OFFSET -19.288868 0.000000 0.000000
         }
        }
       }
      }
     }
     JOINT LeftCollar
     {
      OFFSET 3.176695 8.204215 0.000000
      CHANNELS 3 Yrotation Xrotation Zrotation
      JOINT LeftShoulder
      {
       OFFSET 14.761309 0.000000 0.000000
       CHANNELS 3 Yrotation Xrotation Zrotation
       JOINT LeftElbow
       {
        OFFSET 31.560813 0.000000 0.000000
        CHANNELS 3 Yrotation Xrotation Zrotation
        JOINT LeftWrist
        {
         OFFSET 25.806933 0.000000 0.000000
         CHANNELS 3 Yrotation Xrotation Zrotation
         End Site
         {
          OFFSET 19.288868 0.000000 0.000000
         }
        }
       }
      }
     }
    }
   }
  }
 }
 JOINT RightHip
 {
  OFFSET -8.449583 -0.008248 0.000916
  CHANNELS 3 Yrotation Xrotation Zrotation
  JOINT RightKnee
  {
   OFFSET 0.000000 -43.941227 0.000909
   CHANNELS 3 Yrotation Xrotation Zrotation
   JOINT RightAnkle
   {
    OFFSET 0.000000 -42.928516 0.001532
    CHANNELS 3 Yrotation Xrotation Zrotation
    JOINT RightToe
    {
     OFFSET 0.000000 -6.852267 15.473535
     CHANNELS 3 Yrotation Xrotation Zrotation
     End Site
     {
      OFFSET 0.000000 -1.580106 6.738334
     }
    }
   }
  }
 }
 JOINT LeftHip
 {
  OFFSET 8.449583 -0.010566 0.001174
  CHANNELS 3 Yrotation Xrotation Zrotation
  JOINT LeftKnee
  {
   OFFSET 0.000000 -43.941227 0.000909
   CHANNELS 3 Yrotation Xrotation Zrotation
   JOINT LeftAnkle
   {
    OFFSET 0.000000 -42.928516 0.001532
    CHANNELS 3 Yrotation Xrotation Zrotation
    JOINT LeftToe
    {
     OFFSET 0.000000 -6.852267 15.473535
     CHANNELS 3 Yrotation Xrotation Zrotation
     End Site
     {
      OFFSET 0.000000 -1.580106 6.738334
     }
    }
   }
  }
 }
}
MOTION
Frames: 6
Frame Time: 0.016667
-3.984993 73.040658 132.341697 17.682025 12.616723 -0.685085 -1.023802 6.913185 -0.235045 -0.441618 -2.753297 -0.088966 -0.441730 3.066962 -0.133860 -0.340624 8.136996 -0.099100 1.125681 3.101903 0.826058 1.837653 -30.269725 1.028718 -2.308130 0.284858 8.803602 24.158526 -19.268769 52.684199 0.393914 26.981154 -5.234916 13.221003 13.676869 7.620304 0.345444 -0.250460 -5.281169 -4.803026 -18.519036 -63.141933 -2.917781 35.356903 8.276652 -4.388503 19.161580 -1.843326 2.809704 -63.111751 -21.539219 81.371002 79.058958 92.858656 8.635485 -13.067337 15.131677 -0.000000 -23.807992 -0.000000 -0.688958 -60.960559 23.829510 -93.930975 73.510943 -99.881097 -11.816902 -21.756777 -16.538855 -0.000000 0.000000 0.000000
-4.088262 71.984996 131.958758 17.542978 13.006760 -0.844602 -1.007306 6.906562 -0.126236 -0.440807 -2.756489 -0.040972 -0.440920 3.063770 -0.085783 -0.336560 8.134572 -0.062721 1.228580 3.008221 0.751538 2.099069 -30.442496 0.808805 -2.290208 0.441270 8.810017 24.796231 -19.376787 52.125383 0.582286 26.944058 -5.151267 13.433699 13.541654 7.320643 0.271683 -0.145169 -5.342955 -5.060033 -18.920898 -62.817126 -3.097524 35.047305 8.250630 -4.477562 19.072776 -1.699244 3.319267 -65.142357 -22.061278 91.885681 79.475168 103.237101 8.955264 -12.571481 14.706898 0.000000 -25.067178 0.000000 -0.774727 -63.068445 24.067435 -101.130864 73.208027 -106.679963 -11.254137 -21.166836 -16.288763 0.000000 -1.643235 -0.000000
-4.166771 71.008154 131.556309 17.460092 13.374111 -0.910321 -1.018325 6.899306 -0.051693 -0.450185 -2.759875 -0.007765 -0.450302 3.060377 -0.053529 -0.341270 8.132007 -0.038265 1.312086 2.911458 0.695495 2.309428 -30.620848 0.638598 -2.275132 0.737938 8.749105 25.294895 -19.658067 51.673467 0.806570 26.957509 -5.071635 13.581997 13.396760 7.052589 0.174166 0.107473 -5.367883 -5.197372 -19.507302 -62.534919 -3.230972 34.869053 8.211721 -4.583630 18.986732 -1.513588 3.748977 -67.091690 -22.500035 101.745417 79.322936 112.852631 8.993284 -12.116321 14.316281 0.000000 -26.239375 -0.000000 -0.499766 -65.131549 23.789462 -108.012104 73.042090 -113.030298 -11.107491 -20.433607 -16.084213 0.000000 -3.852687 0.000000
-4.235932 70.069241 131.127313 17.385807 13.745705 -0.925353 -1.033964 6.884902 0.008971 -0.460785 -2.766410 0.019340 -0.460902 3.053834 -0.027502 -0.347341 8.127082 -0.018519 1.375687 2.823567 0.642899 2.476561 -30.782643 0.487467 -2.178607 0.832101 8.661432 25.550385 -19.789588 51.393431 1.004582 26.975037 -4.993330 13.700623 13.274113 6.860005 0.132851 0.309883 -5.377297 -5.266701 -20.090232 -62.343781 -3.330256 34.798400 8.179991 -4.660917 18.945211 -1.357985 5.179039 -68.947165 -23.883346 109.637544 78.379629 120.887646 8.457064 -11.651637 13.997810 -0.000000 -27.451665 0.000000 -1.178883 -67.107605 24.326435 -113.780103 72.510156 -118.763274 -10.992319 -19.518239 -15.921602 0.000000 -6.067390 0.000000
-4.302051 69.120589 130.682128 17.278873 14.101826 -0.936441 -1.028256 6.883524 0.067432 -0.461748 -2.767150 0.045180 -0.461868 3.053092 -0.001760 -0.346213 8.126507 0.000967 1.415668 2.740427 0.580675 2.600710 -30.935508 0.330513 -2.068823 0.869250 8.511518 25.687990 -19.917735 51.216044 1.167890 27.038464 -4.906835 13.791521 13.205048 6.759941 0.145252 0.302459 -5.440425 -5.302058 -20.524065 -62.182811 -3.403909 34.798321 8.173027 -4.703154 18.933857 -1.235412 8.130542 -70.649017 -26.744521 114.666182 76.694880 126.549395 7.413726 -11.192461 13.646429 -0.000000 -28.617583 -0.000000 -3.404301 -68.928631 26.447191 -117.466720 71.177524 -123.099859 -10.423423 -18.542461 -15.727794 0.000000 -8.132178 -0.000000
-4.324280 68.164011 130.231663 17.215773 14.413064 -0.905774 -1.011975 6.896080 0.090492 -0.455885 -2.761617 0.055192 -0.456009 3.058631 0.008847 -0.341059 8.130653 0.008970 1.417792 2.661593 0.531342 2.637802 -31.080982 0.223969 -1.982489 1.052761 8.391747 25.801529 -20.173759 51.008780 1.276371 27.162541 -4.817764 13.848819 13.211450 6.755698 0.110829 0.263712 -5.475535 -5.286471 -20.931409 -62.044793 -3.483652 34.802722 8.170060 -4.758818 18.902529 -1.110345 11.753931 -72.231393 -30.317703 118.030037 74.835164 130.650794 6.211449 -10.723281 13.260499 0.000000 -29.706641 0.000000 -6.130113 -70.576967 28.974978 -119.113966 69.197503 -125.742698 -9.158465 -17.604971 -15.325352 0.000000 -10.108780 -0.000000
